<?xml version="1.0" encoding="UTF-8" standalone="no"?>
<!DOCTYPE svg PUBLIC "-//W3C//DTD SVG 1.1//EN"
 "http://www.w3.org/Graphics/SVG/1.1/DTD/svg11.dtd">
<!-- Generated by graphviz version 2.49.0 (20210828.1703)
 -->
<!-- Pages: 1 -->
<svg width="265pt" height="350pt"
 viewBox="0.00 0.00 264.79 350.00" xmlns="http://www.w3.org/2000/svg" xmlns:xlink="http://www.w3.org/1999/xlink">
<g id="graph0" class="graph" transform="scale(1 1) rotate(0) translate(4 346)">
<polygon fill="white" stroke="transparent" points="-4,4 -4,-346 260.79,-346 260.79,4 -4,4"/>
<!-- cat -->
<g id="node1" class="node">
<title>cat</title>
<polygon fill="none" stroke="black" points="186.79,-255 36.79,-255 36.79,-219 186.79,-219 186.79,-255"/>
<text text-anchor="middle" x="111.79" y="-233.3" font-family="Times,serif" font-size="14.00">Cat with Bio.SeqIo</text>
</g>
<!-- DB_fasta -->
<g id="node3" class="node">
<title>DB_fasta</title>
<ellipse fill="none" stroke="black" stroke-width="2" cx="111.79" cy="-164" rx="50.89" ry="18"/>
<text text-anchor="middle" x="111.79" y="-160.3" font-family="Times,serif" font-size="14.00">DB.fasta</text>
</g>
<!-- cat&#45;&gt;DB_fasta -->
<g id="edge2" class="edge">
<title>cat&#45;&gt;DB_fasta</title>
<path fill="none" stroke="black" d="M111.79,-218.81C111.79,-210.79 111.79,-201.05 111.79,-192.07"/>
<polygon fill="black" stroke="black" points="115.29,-192.03 111.79,-182.03 108.29,-192.03 115.29,-192.03"/>
</g>
<!-- DecoyDatabase -->
<g id="node2" class="node">
<title>DecoyDatabase</title>
<polygon fill="none" stroke="black" points="175.29,-109 48.29,-109 48.29,-73 175.29,-73 175.29,-109"/>
<text text-anchor="middle" x="111.79" y="-87.3" font-family="Times,serif" font-size="14.00">DecoyDatabase</text>
</g>
<!-- DB_with_decoy -->
<g id="node4" class="node">
<title>DB_with_decoy</title>
<ellipse fill="none" stroke="black" stroke-width="2" cx="111.79" cy="-18" rx="111.58" ry="18"/>
<text text-anchor="middle" x="111.79" y="-14.3" font-family="Times,serif" font-size="14.00">DB_with_decoys.fasta</text>
</g>
<!-- DecoyDatabase&#45;&gt;DB_with_decoy -->
<g id="edge4" class="edge">
<title>DecoyDatabase&#45;&gt;DB_with_decoy</title>
<path fill="none" stroke="black" d="M111.79,-72.81C111.79,-64.79 111.79,-55.05 111.79,-46.07"/>
<polygon fill="black" stroke="black" points="115.29,-46.03 111.79,-36.03 108.29,-46.03 115.29,-46.03"/>
</g>
<!-- DB_fasta&#45;&gt;DecoyDatabase -->
<g id="edge3" class="edge">
<title>DB_fasta&#45;&gt;DecoyDatabase</title>
<path fill="none" stroke="black" d="M111.79,-145.81C111.79,-137.79 111.79,-128.05 111.79,-119.07"/>
<polygon fill="black" stroke="black" points="115.29,-119.03 111.79,-109.03 108.29,-119.03 115.29,-119.03"/>
</g>
<!-- all_fasta_files -->
<g id="node5" class="node">
<title>all_fasta_files</title>
<ellipse fill="none" stroke="black" cx="111.79" cy="-324" rx="72.59" ry="18"/>
<text text-anchor="middle" x="111.79" y="-320.3" font-family="Times,serif" font-size="14.00">all_fasta_files</text>
</g>
<!-- all_fasta_files&#45;&gt;cat -->
<g id="edge1" class="edge">
<title>all_fasta_files&#45;&gt;cat</title>
<path fill="none" stroke="black" d="M111.79,-305.8C111.79,-294.16 111.79,-278.55 111.79,-265.24"/>
<polygon fill="black" stroke="black" points="115.29,-265.18 111.79,-255.18 108.29,-265.18 115.29,-265.18"/>
<text text-anchor="middle" x="184.29" y="-276.8" font-family="Times,serif" font-size="14.00">cannot be parallized</text>
</g>
</g>
</svg>
