<?xml version="1.0" encoding="UTF-8" standalone="no"?>
<!DOCTYPE svg PUBLIC "-//W3C//DTD SVG 1.1//EN"
 "http://www.w3.org/Graphics/SVG/1.1/DTD/svg11.dtd">
<!-- Generated by graphviz version 2.49.0 (20210828.1703)
 -->
<!-- Pages: 1 -->
<svg width="460pt" height="332pt"
 viewBox="0.00 0.00 460.08 332.00" xmlns="http://www.w3.org/2000/svg" xmlns:xlink="http://www.w3.org/1999/xlink">
<g id="graph0" class="graph" transform="scale(1 1) rotate(0) translate(4 328)">
<polygon fill="white" stroke="transparent" points="-4,4 -4,-328 456.08,-328 456.08,4 -4,4"/>
<!-- DIA -->
<g id="node1" class="node">
<title>DIA</title>
<ellipse fill="none" stroke="black" cx="76.04" cy="-306" rx="76.09" ry="18"/>
<text text-anchor="middle" x="76.04" y="-302.3" font-family="Times,serif" font-size="14.00">DIA_1.mzXML</text>
</g>
<!-- diaumpire -->
<g id="node2" class="node">
<title>diaumpire</title>
<polygon fill="none" stroke="black" points="283.54,-252 102.54,-252 102.54,-216 283.54,-216 283.54,-252"/>
<text text-anchor="middle" x="193.04" y="-230.3" font-family="Times,serif" font-size="14.00">java &#45;jar DiaUmpire.jar</text>
</g>
<!-- DIA&#45;&gt;diaumpire -->
<g id="edge1" class="edge">
<title>DIA&#45;&gt;diaumpire</title>
<path fill="none" stroke="black" d="M102.59,-289.12C118.32,-279.7 138.5,-267.63 155.81,-257.28"/>
<polygon fill="black" stroke="black" points="157.77,-260.18 164.56,-252.04 154.18,-254.17 157.77,-260.18"/>
</g>
<!-- pseudo_spectra -->
<g id="node3" class="node">
<title>pseudo_spectra</title>
<ellipse fill="none" stroke="black" cx="193.04" cy="-162" rx="93.68" ry="18"/>
<text text-anchor="middle" x="193.04" y="-158.3" font-family="Times,serif" font-size="14.00">libfree/DIA_1.mgs</text>
</g>
<!-- diaumpire&#45;&gt;pseudo_spectra -->
<g id="edge3" class="edge">
<title>diaumpire&#45;&gt;pseudo_spectra</title>
<path fill="none" stroke="black" d="M193.04,-215.7C193.04,-207.98 193.04,-198.71 193.04,-190.11"/>
<polygon fill="black" stroke="black" points="196.54,-190.1 193.04,-180.1 189.54,-190.1 196.54,-190.1"/>
</g>
<!-- msconvert -->
<g id="node6" class="node">
<title>msconvert</title>
<polygon fill="none" stroke="black" points="239.04,-108 147.04,-108 147.04,-72 239.04,-72 239.04,-108"/>
<text text-anchor="middle" x="193.04" y="-86.3" font-family="Times,serif" font-size="14.00">msconvert</text>
</g>
<!-- pseudo_spectra&#45;&gt;msconvert -->
<g id="edge4" class="edge">
<title>pseudo_spectra&#45;&gt;msconvert</title>
<path fill="none" stroke="black" d="M193.04,-143.7C193.04,-135.98 193.04,-126.71 193.04,-118.11"/>
<polygon fill="black" stroke="black" points="196.54,-118.1 193.04,-108.1 189.54,-118.1 196.54,-118.1"/>
</g>
<!-- diaumpire_cfg -->
<g id="node4" class="node">
<title>diaumpire_cfg</title>
<ellipse fill="none" stroke="black" cx="311.04" cy="-306" rx="141.07" ry="18"/>
<text text-anchor="middle" x="311.04" y="-302.3" font-family="Times,serif" font-size="14.00">diaumpirecfg.txt (singleton)</text>
</g>
<!-- diaumpire_cfg&#45;&gt;diaumpire -->
<g id="edge2" class="edge">
<title>diaumpire_cfg&#45;&gt;diaumpire</title>
<path fill="none" stroke="black" d="M282.78,-288.23C267.25,-279.02 247.77,-267.47 230.94,-257.48"/>
<polygon fill="black" stroke="black" points="232.28,-254.21 221.9,-252.12 228.71,-260.23 232.28,-254.21"/>
</g>
<!-- pseudo_spectra_mzxml -->
<g id="node5" class="node">
<title>pseudo_spectra_mzxml</title>
<ellipse fill="none" stroke="black" cx="193.04" cy="-18" rx="180.07" ry="18"/>
<text text-anchor="middle" x="193.04" y="-14.3" font-family="Times,serif" font-size="14.00">libfree&#45;pseudospectra/DIA_1.mzXML</text>
</g>
<!-- msconvert&#45;&gt;pseudo_spectra_mzxml -->
<g id="edge5" class="edge">
<title>msconvert&#45;&gt;pseudo_spectra_mzxml</title>
<path fill="none" stroke="black" d="M193.04,-71.7C193.04,-63.98 193.04,-54.71 193.04,-46.11"/>
<polygon fill="black" stroke="black" points="196.54,-46.1 193.04,-36.1 189.54,-46.1 196.54,-46.1"/>
</g>
</g>
</svg>
