<?xml version="1.0" encoding="UTF-8" standalone="no"?>
<!DOCTYPE svg PUBLIC "-//W3C//DTD SVG 1.1//EN"
 "http://www.w3.org/Graphics/SVG/1.1/DTD/svg11.dtd">
<!-- Generated by graphviz version 2.49.0 (20210828.1703)
 -->
<!-- Title: flow Pages: 1 -->
<svg width="408pt" height="1377pt"
 viewBox="0.00 0.00 408.00 1377.20" xmlns="http://www.w3.org/2000/svg" xmlns:xlink="http://www.w3.org/1999/xlink">
<g id="graph0" class="graph" transform="scale(1 1) rotate(0) translate(4 1373.2)">
<title>flow</title>
<polygon fill="white" stroke="transparent" points="-4,4 -4,-1373.2 404,-1373.2 404,4 -4,4"/>
<g id="clust4" class="cluster">
<title>cluster_spectra</title>
<polygon fill="none" stroke="black" stroke-dasharray="5,2" points="111,-1017.5 111,-1282 253,-1282 253,-1017.5 111,-1017.5"/>
<text text-anchor="middle" x="182" y="-1266.8" font-family="Times,serif" font-size="14.00">Spectra</text>
</g>
<g id="clust5" class="cluster">
<title>cluster_spectral_libgen</title>
<polygon fill="none" stroke="black" stroke-dasharray="5,2" points="161,-614 161,-999 392,-999 392,-614 161,-614"/>
<text text-anchor="middle" x="276.5" y="-983.8" font-family="Times,serif" font-size="14.00">Creating The Spectral Library</text>
</g>
<g id="clust6" class="cluster">
<title>cluster_searching</title>
<polygon fill="none" stroke="black" stroke-dasharray="5,2" points="169,-742 169,-968 338,-968 338,-742 169,-742"/>
<text text-anchor="middle" x="253.5" y="-952.8" font-family="Times,serif" font-size="14.00">Searching</text>
</g>
<g id="clust8" class="cluster">
<title>cluster_diapart</title>
<polygon fill="none" stroke="black" stroke-dasharray="5,2" points="20,-8 20,-734 153,-734 153,-8 20,-8"/>
<text text-anchor="middle" x="86.5" y="-718.8" font-family="Times,serif" font-size="14.00">DIA Analysis</text>
</g>
<!-- buildfastadatabase -->
<g id="node1" class="node">
<title>buildfastadatabase</title>
<polygon fill="none" stroke="black" points="349.5,-1090 266.5,-1090 266.5,-1007 349.5,-1007 349.5,-1090"/>
<text text-anchor="middle" x="308" y="-1059.8" font-family="Times,serif" font-size="14.00">Build</text>
<text text-anchor="middle" x="308" y="-1044.8" font-family="Times,serif" font-size="14.00">Fasta</text>
<text text-anchor="middle" x="308" y="-1029.8" font-family="Times,serif" font-size="14.00">Database</text>
</g>
<!-- comet -->
<g id="node2" class="node">
<title>comet</title>
<polygon fill="none" stroke="black" points="329.5,-933 266.5,-933 266.5,-870 329.5,-870 329.5,-933"/>
<text text-anchor="middle" x="298" y="-897.8" font-family="Times,serif" font-size="14.00">Comet</text>
</g>
<!-- buildfastadatabase&#45;&gt;comet -->
<g id="edge17" class="edge">
<title>buildfastadatabase&#45;&gt;comet</title>
<path fill="none" stroke="black" d="M305.19,-1006.72C303.83,-986.98 302.2,-963.34 300.83,-943.56"/>
<polygon fill="black" stroke="black" points="304.31,-943.05 300.13,-933.32 297.32,-943.54 304.31,-943.05"/>
</g>
<!-- tandem -->
<g id="node4" class="node">
<title>tandem</title>
<polygon fill="none" stroke="black" points="248.5,-937 177.5,-937 177.5,-866 248.5,-866 248.5,-937"/>
<text text-anchor="middle" x="213" y="-897.8" font-family="Times,serif" font-size="14.00">tandem</text>
</g>
<!-- buildfastadatabase&#45;&gt;tandem -->
<g id="edge18" class="edge">
<title>buildfastadatabase&#45;&gt;tandem</title>
<path fill="none" stroke="black" d="M266.28,-1009.47C263.33,-1006.06 260.52,-1002.55 258,-999 246.61,-982.99 236.91,-963.63 229.48,-946.47"/>
<polygon fill="black" stroke="black" points="232.68,-945.06 225.58,-937.2 226.23,-947.77 232.68,-945.06"/>
</g>
<!-- spectrast -->
<g id="node6" class="node">
<title>spectrast</title>
<polygon fill="none" stroke="black" points="294.5,-705 211.5,-705 211.5,-622 294.5,-622 294.5,-705"/>
<text text-anchor="middle" x="253" y="-659.8" font-family="Times,serif" font-size="14.00">spectrast</text>
</g>
<!-- buildfastadatabase&#45;&gt;spectrast -->
<g id="edge12" class="edge">
<title>buildfastadatabase&#45;&gt;spectrast</title>
<path fill="none" stroke="black" d="M338.94,-1006.86C340.13,-1004.28 341.16,-1001.65 342,-999 376.38,-890.07 389.32,-845.96 342,-742 333.61,-723.58 318.45,-707.84 302.98,-695.45"/>
<polygon fill="black" stroke="black" points="304.98,-692.56 294.9,-689.28 300.73,-698.13 304.98,-692.56"/>
</g>
<!-- comet_and_tandem -->
<g id="node3" class="node">
<title>comet_and_tandem</title>
<polygon fill="none" stroke="black" points="293,-830 213,-830 213,-750 293,-750 293,-830"/>
<text text-anchor="middle" x="253" y="-786.3" font-family="Times,serif" font-size="14.00">Combine</text>
</g>
<!-- comet&#45;&gt;comet_and_tandem -->
<g id="edge1" class="edge">
<title>comet&#45;&gt;comet_and_tandem</title>
<path fill="none" stroke="black" d="M285.46,-870C281.6,-860.6 277.25,-850 273.01,-839.7"/>
<polygon fill="black" stroke="black" points="276.21,-838.28 269.18,-830.36 269.74,-840.94 276.21,-838.28"/>
</g>
<!-- comet_and_tandem&#45;&gt;spectrast -->
<g id="edge11" class="edge">
<title>comet_and_tandem&#45;&gt;spectrast</title>
<path fill="none" stroke="black" d="M253,-749.95C253,-738.92 253,-726.75 253,-715.15"/>
<polygon fill="black" stroke="black" points="256.5,-715.13 253,-705.13 249.5,-715.13 256.5,-715.13"/>
</g>
<!-- tandem&#45;&gt;comet_and_tandem -->
<g id="edge2" class="edge">
<title>tandem&#45;&gt;comet_and_tandem</title>
<path fill="none" stroke="black" d="M225.66,-865.85C228.68,-857.57 231.97,-848.58 235.18,-839.79"/>
<polygon fill="black" stroke="black" points="238.47,-840.97 238.62,-830.38 231.9,-838.57 238.47,-840.97"/>
</g>
<!-- diaumpire -->
<g id="node5" class="node">
<title>diaumpire</title>
<polygon fill="none" stroke="black" points="244.5,-1251 119.5,-1251 119.5,-1126 244.5,-1126 244.5,-1251"/>
<text text-anchor="middle" x="182" y="-1192.3" font-family="Times,serif" font-size="14.00">Generate</text>
<text text-anchor="middle" x="182" y="-1177.3" font-family="Times,serif" font-size="14.00"> Pseudospectra</text>
</g>
<!-- choose_spectra -->
<g id="node16" class="node">
<title>choose_spectra</title>
<polygon fill="none" stroke="black" points="203,-1071.5 161.31,-1037 244.69,-1037 203,-1071.5"/>
<text text-anchor="middle" x="203" y="-1044.8" font-family="Times,serif" font-size="14.00">or</text>
</g>
<!-- diaumpire&#45;&gt;choose_spectra -->
<g id="edge6" class="edge">
<title>diaumpire&#45;&gt;choose_spectra</title>
<path fill="none" stroke="black" stroke-width="2" stroke-dasharray="5,2" d="M191.39,-1125.77C193.84,-1109.68 196.37,-1093.07 198.44,-1079.47"/>
<polygon fill="black" stroke="black" stroke-width="2" points="201.95,-1079.69 199.99,-1069.28 195.03,-1078.64 201.95,-1079.69"/>
</g>
<!-- create_transitions -->
<g id="node8" class="node">
<title>create_transitions</title>
<polygon fill="none" stroke="black" points="145.5,-586 48.5,-586 48.5,-489 145.5,-489 145.5,-586"/>
<text text-anchor="middle" x="97" y="-541.3" font-family="Times,serif" font-size="14.00">Create</text>
<text text-anchor="middle" x="97" y="-526.3" font-family="Times,serif" font-size="14.00">Transitions</text>
</g>
<!-- spectrast&#45;&gt;create_transitions -->
<g id="edge9" class="edge">
<title>spectrast&#45;&gt;create_transitions</title>
<path fill="none" stroke="black" d="M211.19,-629.27C193.51,-615.21 172.62,-598.61 153.59,-583.48"/>
<polygon fill="black" stroke="black" points="155.56,-580.58 145.56,-577.1 151.21,-586.06 155.56,-580.58"/>
</g>
<!-- find_swath_windows -->
<g id="node7" class="node">
<title>find_swath_windows</title>
<polygon fill="none" stroke="black" points="115.5,-703 36.5,-703 36.5,-624 115.5,-624 115.5,-703"/>
<text text-anchor="middle" x="76" y="-674.8" font-family="Times,serif" font-size="14.00">Finding</text>
<text text-anchor="middle" x="76" y="-659.8" font-family="Times,serif" font-size="14.00">Swath</text>
<text text-anchor="middle" x="76" y="-644.8" font-family="Times,serif" font-size="14.00">windows</text>
</g>
<!-- find_swath_windows&#45;&gt;create_transitions -->
<g id="edge19" class="edge">
<title>find_swath_windows&#45;&gt;create_transitions</title>
<path fill="none" stroke="black" d="M82.53,-623.95C84.01,-615.17 85.62,-605.67 87.21,-596.29"/>
<polygon fill="black" stroke="black" points="90.7,-596.65 88.92,-586.21 83.8,-595.48 90.7,-596.65"/>
</g>
<!-- osw -->
<g id="node9" class="node">
<title>osw</title>
<polygon fill="none" stroke="black" points="84,-453 40,-453 40,-409 84,-409 84,-453"/>
<text text-anchor="middle" x="62" y="-427.3" font-family="Times,serif" font-size="14.00">osw</text>
</g>
<!-- find_swath_windows&#45;&gt;osw -->
<g id="edge20" class="edge">
<title>find_swath_windows&#45;&gt;osw</title>
<path fill="none" stroke="black" d="M53.86,-623.98C48.19,-612.17 42.88,-598.89 40,-586 30.6,-543.93 32.1,-531.38 40,-489 41.65,-480.16 44.62,-470.92 47.85,-462.51"/>
<polygon fill="black" stroke="black" points="51.16,-463.69 51.71,-453.11 44.68,-461.03 51.16,-463.69"/>
</g>
<!-- create_transitions&#45;&gt;osw -->
<g id="edge21" class="edge">
<title>create_transitions&#45;&gt;osw</title>
<path fill="none" stroke="black" d="M81.04,-488.84C78.06,-479.96 75.03,-470.9 72.28,-462.7"/>
<polygon fill="black" stroke="black" points="75.59,-461.57 69.1,-453.2 68.96,-463.79 75.59,-461.57"/>
</g>
<!-- pyprophet_legacy -->
<g id="node10" class="node">
<title>pyprophet_legacy</title>
<polygon fill="none" stroke="black" points="122.5,-373 31.5,-373 31.5,-282 122.5,-282 122.5,-373"/>
<text text-anchor="middle" x="77" y="-323.8" font-family="Times,serif" font-size="14.00">Pyprophet</text>
</g>
<!-- osw&#45;&gt;pyprophet_legacy -->
<g id="edge14" class="edge">
<title>osw&#45;&gt;pyprophet_legacy</title>
<path fill="none" stroke="black" d="M65.11,-408.97C66.23,-401.38 67.55,-392.42 68.9,-383.28"/>
<polygon fill="black" stroke="black" points="72.37,-383.76 70.37,-373.36 65.45,-382.74 72.37,-383.76"/>
</g>
<!-- feature_alignment -->
<g id="node11" class="node">
<title>feature_alignment</title>
<polygon fill="none" stroke="black" points="123,-246 33,-246 33,-156 123,-156 123,-246"/>
<text text-anchor="middle" x="78" y="-204.8" font-family="Times,serif" font-size="14.00">Feature</text>
<text text-anchor="middle" x="78" y="-189.8" font-family="Times,serif" font-size="14.00">Alignment</text>
</g>
<!-- pyprophet_legacy&#45;&gt;feature_alignment -->
<g id="edge15" class="edge">
<title>pyprophet_legacy&#45;&gt;feature_alignment</title>
<path fill="none" stroke="black" d="M77.36,-281.9C77.42,-273.67 77.49,-264.99 77.56,-256.5"/>
<polygon fill="black" stroke="black" points="81.06,-256.31 77.64,-246.28 74.06,-256.26 81.06,-256.31"/>
</g>
<!-- swath2stats -->
<g id="node12" class="node">
<title>swath2stats</title>
<polygon fill="none" stroke="black" points="132,-120 28,-120 28,-16 132,-16 132,-120"/>
<text text-anchor="middle" x="80" y="-64.3" font-family="Times,serif" font-size="14.00">swath2stats</text>
</g>
<!-- feature_alignment&#45;&gt;swath2stats -->
<g id="edge16" class="edge">
<title>feature_alignment&#45;&gt;swath2stats</title>
<path fill="none" stroke="black" d="M78.68,-155.65C78.8,-147.43 78.94,-138.72 79.07,-130.11"/>
<polygon fill="black" stroke="black" points="82.57,-130.13 79.22,-120.08 75.57,-130.03 82.57,-130.13"/>
</g>
<!-- fasta -->
<g id="node13" class="node">
<title>fasta</title>
<ellipse fill="none" stroke="black" cx="359" cy="-1329.6" rx="39.7" ry="39.7"/>
<text text-anchor="middle" x="359" y="-1333.4" font-family="Times,serif" font-size="14.00">Fasta</text>
<text text-anchor="middle" x="359" y="-1318.4" font-family="Times,serif" font-size="14.00">Files</text>
</g>
<!-- fasta&#45;&gt;buildfastadatabase -->
<g id="edge13" class="edge">
<title>fasta&#45;&gt;buildfastadatabase</title>
<path fill="none" stroke="black" d="M352.02,-1290.38C343,-1241.04 327.29,-1155.06 317.28,-1100.28"/>
<polygon fill="black" stroke="black" points="320.72,-1099.64 315.48,-1090.43 313.83,-1100.9 320.72,-1099.64"/>
</g>
<!-- dda -->
<g id="node14" class="node">
<title>dda</title>
<ellipse fill="none" stroke="black" cx="273" cy="-1329.6" rx="27.9" ry="27.9"/>
<text text-anchor="middle" x="273" y="-1325.9" font-family="Times,serif" font-size="14.00">dda</text>
</g>
<!-- dda&#45;&gt;choose_spectra -->
<g id="edge7" class="edge">
<title>dda&#45;&gt;choose_spectra</title>
<path fill="none" stroke="black" stroke-width="2" stroke-dasharray="5,2" d="M274.59,-1301.48C276.01,-1261.75 275.25,-1185.93 254,-1126 246.64,-1105.25 232.41,-1084.65 220.84,-1070.07"/>
<polygon fill="black" stroke="black" stroke-width="2" points="223.46,-1067.74 214.41,-1062.22 218.04,-1072.17 223.46,-1067.74"/>
</g>
<!-- dia -->
<g id="node15" class="node">
<title>dia</title>
<ellipse fill="none" stroke="black" cx="76" cy="-1329.6" rx="24.9" ry="24.9"/>
<text text-anchor="middle" x="76" y="-1325.9" font-family="Times,serif" font-size="14.00">dia</text>
</g>
<!-- dia&#45;&gt;diaumpire -->
<g id="edge5" class="edge">
<title>dia&#45;&gt;diaumpire</title>
<path fill="none" stroke="black" stroke-width="2" stroke-dasharray="5,2" d="M90.52,-1309.55C100.64,-1296.27 114.82,-1277.66 129,-1259.04"/>
<polygon fill="black" stroke="black" stroke-width="2" points="131.79,-1261.16 135.07,-1251.08 126.23,-1256.92 131.79,-1261.16"/>
</g>
<!-- dia&#45;&gt;find_swath_windows -->
<g id="edge10" class="edge">
<title>dia&#45;&gt;find_swath_windows</title>
<path fill="none" stroke="black" d="M76,-1304.7C76,-1256.47 76,-1143.99 76,-1049.5 76,-1049.5 76,-1049.5 76,-900.5 76,-835.8 76,-761.12 76,-713.39"/>
<polygon fill="black" stroke="black" points="79.5,-713.34 76,-703.34 72.5,-713.34 79.5,-713.34"/>
</g>
<!-- dia&#45;&gt;osw -->
<g id="edge8" class="edge">
<title>dia&#45;&gt;osw</title>
<path fill="none" stroke="black" stroke-width="2" stroke-dasharray="5,2" d="M65.75,-1306.72C45.01,-1260.38 0,-1148.43 0,-1049.5 0,-1049.5 0,-1049.5 0,-662.5 0,-584.32 2.54,-562.57 29,-489 32.32,-479.75 37.13,-470.29 42.06,-461.81"/>
<polygon fill="black" stroke="black" stroke-width="2" points="45.19,-463.4 47.38,-453.03 39.2,-459.76 45.19,-463.4"/>
</g>
<!-- choose_spectra&#45;&gt;comet -->
<g id="edge3" class="edge">
<title>choose_spectra&#45;&gt;comet</title>
<path fill="none" stroke="black" stroke-width="2" stroke-dasharray="5,2" d="M218.75,-1036.71C230.82,-1027.77 247.19,-1014.12 258,-999 270.16,-981.99 279.48,-960.73 286.05,-942.5"/>
<polygon fill="black" stroke="black" stroke-width="2" points="289.37,-943.6 289.33,-933.01 282.75,-941.32 289.37,-943.6"/>
</g>
<!-- choose_spectra&#45;&gt;tandem -->
<g id="edge4" class="edge">
<title>choose_spectra&#45;&gt;tandem</title>
<path fill="none" stroke="black" stroke-width="2" stroke-dasharray="5,2" d="M203.75,-1036.6C205.04,-1017.9 207.74,-978.71 209.9,-947.5"/>
<polygon fill="black" stroke="black" stroke-width="2" points="213.41,-947.48 210.6,-937.26 206.42,-947 213.41,-947.48"/>
</g>
</g>
</svg>
